<svg width="10" height="9" viewBox="0 0 10 9" fill="none" xmlns="http://www.w3.org/2000/svg">
<path fill-rule="evenodd" clip-rule="evenodd" d="M7.66983 0.0501094C7.6187 0.0771625 7.55732 0.121446 7.5334 0.148499C7.50948 0.175578 6.57908 1.54175 5.46587 3.18444C4.35266 4.82714 3.43692 6.17661 3.43092 6.18328C3.42492 6.18991 2.98142 5.75741 2.44538 5.22211C1.90933 4.68683 1.43711 4.23636 1.39602 4.22109C1.29946 4.1852 1.10977 4.18549 1.01451 4.2217C0.904627 4.26349 0.107317 5.06125 0.0479015 5.18887C-0.0126029 5.31882 -0.0156825 5.43787 0.038052 5.56804C0.0662998 5.63645 0.544919 6.13371 1.59779 7.18851C3.26523 8.85901 3.2657 8.85943 3.59528 8.88588C3.80361 8.9026 3.9797 8.8297 4.14409 8.65865C4.24171 8.5571 9.05594 1.48756 9.16038 1.2924C9.24897 1.12687 9.23509 0.916047 9.1255 0.762118C9.07633 0.693092 8.38986 0.205977 8.14216 0.0643661C8.00201 -0.0157843 7.8056 -0.0217047 7.66983 0.0501094Z" fill="#363636"/>
</svg>
